<?xml version="1.0" encoding="utf-8" standalone="no"?>
<!DOCTYPE svg PUBLIC "-//W3C//DTD SVG 1.1//EN"
  "http://www.w3.org/Graphics/SVG/1.1/DTD/svg11.dtd">
<svg xmlns:xlink="http://www.w3.org/1999/xlink" width="1152pt" height="576pt" viewBox="0 0 1152 576" xmlns="http://www.w3.org/2000/svg" version="1.1">
 <metadata>
  <rdf:RDF xmlns:dc="http://purl.org/dc/elements/1.1/" xmlns:cc="http://creativecommons.org/ns#" xmlns:rdf="http://www.w3.org/1999/02/22-rdf-syntax-ns#">
   <cc:Work>
    <dc:type rdf:resource="http://purl.org/dc/dcmitype/StillImage"/>
    <dc:date>2022-11-08T00:29:35.975756</dc:date>
    <dc:format>image/svg+xml</dc:format>
    <dc:creator>
     <cc:Agent>
      <dc:title>Matplotlib v3.5.2, https://matplotlib.org/</dc:title>
     </cc:Agent>
    </dc:creator>
   </cc:Work>
  </rdf:RDF>
 </metadata>
 <defs>
  <style type="text/css">*{stroke-linejoin: round; stroke-linecap: butt}</style>
 </defs>
 <g id="figure_1">
  <g id="patch_1">
   <path d="M 0 576 
L 1152 576 
L 1152 0 
L 0 0 
z
" style="fill: #ffffff"/>
  </g>
  <g id="axes_1">
   <g id="patch_2">
    <path d="M 144 512.64 
L 1036.8 512.64 
L 1036.8 69.12 
L 144 69.12 
z
" style="fill: #ffffff"/>
   </g>
   <g id="matplotlib.axis_1">
    <g id="xtick_1">
     <g id="line2d_1">
      <path d="M 252.218182 512.64 
L 252.218182 69.12 
" clip-path="url(#p7654a54ac8)" style="fill: none; stroke: #cccccc; stroke-linecap: round"/>
     </g>
     <g id="text_1">
      <!-- 2000 -->
      <g style="fill: #262626" transform="translate(234.423182 533.5925)scale(0.16 -0.16)">
       <defs>
        <path id="ArialMT-32" d="M 3222 541 
L 3222 0 
L 194 0 
Q 188 203 259 391 
Q 375 700 629 1000 
Q 884 1300 1366 1694 
Q 2113 2306 2375 2664 
Q 2638 3022 2638 3341 
Q 2638 3675 2398 3904 
Q 2159 4134 1775 4134 
Q 1369 4134 1125 3890 
Q 881 3647 878 3216 
L 300 3275 
Q 359 3922 746 4261 
Q 1134 4600 1788 4600 
Q 2447 4600 2831 4234 
Q 3216 3869 3216 3328 
Q 3216 3053 3103 2787 
Q 2991 2522 2730 2228 
Q 2469 1934 1863 1422 
Q 1356 997 1212 845 
Q 1069 694 975 541 
L 3222 541 
z
" transform="scale(0.015625)"/>
        <path id="ArialMT-30" d="M 266 2259 
Q 266 3072 433 3567 
Q 600 4063 929 4331 
Q 1259 4600 1759 4600 
Q 2128 4600 2406 4451 
Q 2684 4303 2865 4023 
Q 3047 3744 3150 3342 
Q 3253 2941 3253 2259 
Q 3253 1453 3087 958 
Q 2922 463 2592 192 
Q 2263 -78 1759 -78 
Q 1097 -78 719 397 
Q 266 969 266 2259 
z
M 844 2259 
Q 844 1131 1108 757 
Q 1372 384 1759 384 
Q 2147 384 2411 759 
Q 2675 1134 2675 2259 
Q 2675 3391 2411 3762 
Q 2147 4134 1753 4134 
Q 1366 4134 1134 3806 
Q 844 3388 844 2259 
z
" transform="scale(0.015625)"/>
       </defs>
       <use xlink:href="#ArialMT-32"/>
       <use xlink:href="#ArialMT-30" x="55.615234"/>
       <use xlink:href="#ArialMT-30" x="111.230469"/>
       <use xlink:href="#ArialMT-30" x="166.845703"/>
      </g>
     </g>
    </g>
    <g id="xtick_2">
     <g id="line2d_2">
      <path d="M 421.309091 512.64 
L 421.309091 69.12 
" clip-path="url(#p7654a54ac8)" style="fill: none; stroke: #cccccc; stroke-linecap: round"/>
     </g>
     <g id="text_2">
      <!-- 2005 -->
      <g style="fill: #262626" transform="translate(403.514091 533.5925)scale(0.16 -0.16)">
       <defs>
        <path id="ArialMT-35" d="M 266 1200 
L 856 1250 
Q 922 819 1161 601 
Q 1400 384 1738 384 
Q 2144 384 2425 690 
Q 2706 997 2706 1503 
Q 2706 1984 2436 2262 
Q 2166 2541 1728 2541 
Q 1456 2541 1237 2417 
Q 1019 2294 894 2097 
L 366 2166 
L 809 4519 
L 3088 4519 
L 3088 3981 
L 1259 3981 
L 1013 2750 
Q 1425 3038 1878 3038 
Q 2478 3038 2890 2622 
Q 3303 2206 3303 1553 
Q 3303 931 2941 478 
Q 2500 -78 1738 -78 
Q 1113 -78 717 272 
Q 322 622 266 1200 
z
" transform="scale(0.015625)"/>
       </defs>
       <use xlink:href="#ArialMT-32"/>
       <use xlink:href="#ArialMT-30" x="55.615234"/>
       <use xlink:href="#ArialMT-30" x="111.230469"/>
       <use xlink:href="#ArialMT-35" x="166.845703"/>
      </g>
     </g>
    </g>
    <g id="xtick_3">
     <g id="line2d_3">
      <path d="M 590.4 512.64 
L 590.4 69.12 
" clip-path="url(#p7654a54ac8)" style="fill: none; stroke: #cccccc; stroke-linecap: round"/>
     </g>
     <g id="text_3">
      <!-- 2010 -->
      <g style="fill: #262626" transform="translate(572.605 533.5925)scale(0.16 -0.16)">
       <defs>
        <path id="ArialMT-31" d="M 2384 0 
L 1822 0 
L 1822 3584 
Q 1619 3391 1289 3197 
Q 959 3003 697 2906 
L 697 3450 
Q 1169 3672 1522 3987 
Q 1875 4303 2022 4600 
L 2384 4600 
L 2384 0 
z
" transform="scale(0.015625)"/>
       </defs>
       <use xlink:href="#ArialMT-32"/>
       <use xlink:href="#ArialMT-30" x="55.615234"/>
       <use xlink:href="#ArialMT-31" x="111.230469"/>
       <use xlink:href="#ArialMT-30" x="166.845703"/>
      </g>
     </g>
    </g>
    <g id="xtick_4">
     <g id="line2d_4">
      <path d="M 759.490909 512.64 
L 759.490909 69.12 
" clip-path="url(#p7654a54ac8)" style="fill: none; stroke: #cccccc; stroke-linecap: round"/>
     </g>
     <g id="text_4">
      <!-- 2015 -->
      <g style="fill: #262626" transform="translate(741.695909 533.5925)scale(0.16 -0.16)">
       <use xlink:href="#ArialMT-32"/>
       <use xlink:href="#ArialMT-30" x="55.615234"/>
       <use xlink:href="#ArialMT-31" x="111.230469"/>
       <use xlink:href="#ArialMT-35" x="166.845703"/>
      </g>
     </g>
    </g>
    <g id="xtick_5">
     <g id="line2d_5">
      <path d="M 928.581818 512.64 
L 928.581818 69.12 
" clip-path="url(#p7654a54ac8)" style="fill: none; stroke: #cccccc; stroke-linecap: round"/>
     </g>
     <g id="text_5">
      <!-- 2020 -->
      <g style="fill: #262626" transform="translate(910.786818 533.5925)scale(0.16 -0.16)">
       <use xlink:href="#ArialMT-32"/>
       <use xlink:href="#ArialMT-30" x="55.615234"/>
       <use xlink:href="#ArialMT-32" x="111.230469"/>
       <use xlink:href="#ArialMT-30" x="166.845703"/>
      </g>
     </g>
    </g>
   </g>
   <g id="matplotlib.axis_2">
    <g id="ytick_1">
     <g id="line2d_6">
      <path d="M 144 500.946142 
L 1036.8 500.946142 
" clip-path="url(#p7654a54ac8)" style="fill: none; stroke: #cccccc; stroke-linecap: round"/>
     </g>
     <g id="text_6">
      <!-- 50 -->
      <g style="fill: #262626" transform="translate(116.705 506.672392)scale(0.16 -0.16)">
       <use xlink:href="#ArialMT-35"/>
       <use xlink:href="#ArialMT-30" x="55.615234"/>
      </g>
     </g>
    </g>
    <g id="ytick_2">
     <g id="line2d_7">
      <path d="M 144 448.032756 
L 1036.8 448.032756 
" clip-path="url(#p7654a54ac8)" style="fill: none; stroke: #cccccc; stroke-linecap: round"/>
     </g>
     <g id="text_7">
      <!-- 100 -->
      <g style="fill: #262626" transform="translate(107.8075 453.759006)scale(0.16 -0.16)">
       <use xlink:href="#ArialMT-31"/>
       <use xlink:href="#ArialMT-30" x="55.615234"/>
       <use xlink:href="#ArialMT-30" x="111.230469"/>
      </g>
     </g>
    </g>
    <g id="ytick_3">
     <g id="line2d_8">
      <path d="M 144 395.11937 
L 1036.8 395.11937 
" clip-path="url(#p7654a54ac8)" style="fill: none; stroke: #cccccc; stroke-linecap: round"/>
     </g>
     <g id="text_8">
      <!-- 150 -->
      <g style="fill: #262626" transform="translate(107.8075 400.84562)scale(0.16 -0.16)">
       <use xlink:href="#ArialMT-31"/>
       <use xlink:href="#ArialMT-35" x="55.615234"/>
       <use xlink:href="#ArialMT-30" x="111.230469"/>
      </g>
     </g>
    </g>
    <g id="ytick_4">
     <g id="line2d_9">
      <path d="M 144 342.205984 
L 1036.8 342.205984 
" clip-path="url(#p7654a54ac8)" style="fill: none; stroke: #cccccc; stroke-linecap: round"/>
     </g>
     <g id="text_9">
      <!-- 200 -->
      <g style="fill: #262626" transform="translate(107.8075 347.932234)scale(0.16 -0.16)">
       <use xlink:href="#ArialMT-32"/>
       <use xlink:href="#ArialMT-30" x="55.615234"/>
       <use xlink:href="#ArialMT-30" x="111.230469"/>
      </g>
     </g>
    </g>
    <g id="ytick_5">
     <g id="line2d_10">
      <path d="M 144 289.292598 
L 1036.8 289.292598 
" clip-path="url(#p7654a54ac8)" style="fill: none; stroke: #cccccc; stroke-linecap: round"/>
     </g>
     <g id="text_10">
      <!-- 250 -->
      <g style="fill: #262626" transform="translate(107.8075 295.018848)scale(0.16 -0.16)">
       <use xlink:href="#ArialMT-32"/>
       <use xlink:href="#ArialMT-35" x="55.615234"/>
       <use xlink:href="#ArialMT-30" x="111.230469"/>
      </g>
     </g>
    </g>
    <g id="ytick_6">
     <g id="line2d_11">
      <path d="M 144 236.379213 
L 1036.8 236.379213 
" clip-path="url(#p7654a54ac8)" style="fill: none; stroke: #cccccc; stroke-linecap: round"/>
     </g>
     <g id="text_11">
      <!-- 300 -->
      <g style="fill: #262626" transform="translate(107.8075 242.105463)scale(0.16 -0.16)">
       <defs>
        <path id="ArialMT-33" d="M 269 1209 
L 831 1284 
Q 928 806 1161 595 
Q 1394 384 1728 384 
Q 2125 384 2398 659 
Q 2672 934 2672 1341 
Q 2672 1728 2419 1979 
Q 2166 2231 1775 2231 
Q 1616 2231 1378 2169 
L 1441 2663 
Q 1497 2656 1531 2656 
Q 1891 2656 2178 2843 
Q 2466 3031 2466 3422 
Q 2466 3731 2256 3934 
Q 2047 4138 1716 4138 
Q 1388 4138 1169 3931 
Q 950 3725 888 3313 
L 325 3413 
Q 428 3978 793 4289 
Q 1159 4600 1703 4600 
Q 2078 4600 2393 4439 
Q 2709 4278 2876 4000 
Q 3044 3722 3044 3409 
Q 3044 3113 2884 2869 
Q 2725 2625 2413 2481 
Q 2819 2388 3044 2092 
Q 3269 1797 3269 1353 
Q 3269 753 2831 336 
Q 2394 -81 1725 -81 
Q 1122 -81 723 278 
Q 325 638 269 1209 
z
" transform="scale(0.015625)"/>
       </defs>
       <use xlink:href="#ArialMT-33"/>
       <use xlink:href="#ArialMT-30" x="55.615234"/>
       <use xlink:href="#ArialMT-30" x="111.230469"/>
      </g>
     </g>
    </g>
    <g id="ytick_7">
     <g id="line2d_12">
      <path d="M 144 183.465827 
L 1036.8 183.465827 
" clip-path="url(#p7654a54ac8)" style="fill: none; stroke: #cccccc; stroke-linecap: round"/>
     </g>
     <g id="text_12">
      <!-- 350 -->
      <g style="fill: #262626" transform="translate(107.8075 189.192077)scale(0.16 -0.16)">
       <use xlink:href="#ArialMT-33"/>
       <use xlink:href="#ArialMT-35" x="55.615234"/>
       <use xlink:href="#ArialMT-30" x="111.230469"/>
      </g>
     </g>
    </g>
    <g id="ytick_8">
     <g id="line2d_13">
      <path d="M 144 130.552441 
L 1036.8 130.552441 
" clip-path="url(#p7654a54ac8)" style="fill: none; stroke: #cccccc; stroke-linecap: round"/>
     </g>
     <g id="text_13">
      <!-- 400 -->
      <g style="fill: #262626" transform="translate(107.8075 136.278691)scale(0.16 -0.16)">
       <defs>
        <path id="ArialMT-34" d="M 2069 0 
L 2069 1097 
L 81 1097 
L 81 1613 
L 2172 4581 
L 2631 4581 
L 2631 1613 
L 3250 1613 
L 3250 1097 
L 2631 1097 
L 2631 0 
L 2069 0 
z
M 2069 1613 
L 2069 3678 
L 634 1613 
L 2069 1613 
z
" transform="scale(0.015625)"/>
       </defs>
       <use xlink:href="#ArialMT-34"/>
       <use xlink:href="#ArialMT-30" x="55.615234"/>
       <use xlink:href="#ArialMT-30" x="111.230469"/>
      </g>
     </g>
    </g>
    <g id="ytick_9">
     <g id="line2d_14">
      <path d="M 144 77.639055 
L 1036.8 77.639055 
" clip-path="url(#p7654a54ac8)" style="fill: none; stroke: #cccccc; stroke-linecap: round"/>
     </g>
     <g id="text_14">
      <!-- 450 -->
      <g style="fill: #262626" transform="translate(107.8075 83.365305)scale(0.16 -0.16)">
       <use xlink:href="#ArialMT-34"/>
       <use xlink:href="#ArialMT-35" x="55.615234"/>
       <use xlink:href="#ArialMT-30" x="111.230469"/>
      </g>
     </g>
    </g>
   </g>
   <g id="PathCollection_1">
    <defs>
     <path id="m7fc6a16be1" d="M 0 3 
C 0.795609 3 1.55874 2.683901 2.12132 2.12132 
C 2.683901 1.55874 3 0.795609 3 0 
C 3 -0.795609 2.683901 -1.55874 2.12132 -2.12132 
C 1.55874 -2.683901 0.795609 -3 0 -3 
C -0.795609 -3 -1.55874 -2.683901 -2.12132 -2.12132 
C -2.683901 -1.55874 -3 -0.795609 -3 0 
C -3 0.795609 -2.683901 1.55874 -2.12132 2.12132 
C -1.55874 2.683901 -0.795609 3 0 3 
z
" style="stroke: #000000; stroke-opacity: 0.8"/>
    </defs>
    <g clip-path="url(#p7654a54ac8)">
     <use xlink:href="#m7fc6a16be1" x="184.581818" y="273.418583" style="fill-opacity: 0.8; stroke: #000000; stroke-opacity: 0.8"/>
     <use xlink:href="#m7fc6a16be1" x="218.4" y="214.155591" style="fill-opacity: 0.8; stroke: #000000; stroke-opacity: 0.8"/>
     <use xlink:href="#m7fc6a16be1" x="252.218182" y="372.895748" style="fill-opacity: 0.8; stroke: #000000; stroke-opacity: 0.8"/>
     <use xlink:href="#m7fc6a16be1" x="286.036364" y="237.43748" style="fill-opacity: 0.8; stroke: #000000; stroke-opacity: 0.8"/>
     <use xlink:href="#m7fc6a16be1" x="319.854545" y="324.215433" style="fill-opacity: 0.8; stroke: #000000; stroke-opacity: 0.8"/>
     <use xlink:href="#m7fc6a16be1" x="353.672727" y="330.565039" style="fill-opacity: 0.8; stroke: #000000; stroke-opacity: 0.8"/>
     <use xlink:href="#m7fc6a16be1" x="387.490909" y="360.196535" style="fill-opacity: 0.8; stroke: #000000; stroke-opacity: 0.8"/>
     <use xlink:href="#m7fc6a16be1" x="421.309091" y="337.972913" style="fill-opacity: 0.8; stroke: #000000; stroke-opacity: 0.8"/>
     <use xlink:href="#m7fc6a16be1" x="455.127273" y="340.089449" style="fill-opacity: 0.8; stroke: #000000; stroke-opacity: 0.8"/>
     <use xlink:href="#m7fc6a16be1" x="488.945455" y="146.426457" style="fill-opacity: 0.8; stroke: #000000; stroke-opacity: 0.8"/>
     <use xlink:href="#m7fc6a16be1" x="522.763636" y="385.594961" style="fill-opacity: 0.8; stroke: #000000; stroke-opacity: 0.8"/>
     <use xlink:href="#m7fc6a16be1" x="556.581818" y="436.391811" style="fill-opacity: 0.8; stroke: #000000; stroke-opacity: 0.8"/>
     <use xlink:href="#m7fc6a16be1" x="590.4" y="471.314646" style="fill-opacity: 0.8; stroke: #000000; stroke-opacity: 0.8"/>
     <use xlink:href="#m7fc6a16be1" x="624.218182" y="220.505197" style="fill-opacity: 0.8; stroke: #000000; stroke-opacity: 0.8"/>
     <use xlink:href="#m7fc6a16be1" x="658.036364" y="240.612283" style="fill-opacity: 0.8; stroke: #000000; stroke-opacity: 0.8"/>
     <use xlink:href="#m7fc6a16be1" x="691.854545" y="458.615433" style="fill-opacity: 0.8; stroke: #000000; stroke-opacity: 0.8"/>
     <use xlink:href="#m7fc6a16be1" x="725.672727" y="453.324094" style="fill-opacity: 0.8; stroke: #000000; stroke-opacity: 0.8"/>
     <use xlink:href="#m7fc6a16be1" x="759.490909" y="478.72252" style="fill-opacity: 0.8; stroke: #000000; stroke-opacity: 0.8"/>
     <use xlink:href="#m7fc6a16be1" x="793.309091" y="324.215433" style="fill-opacity: 0.8; stroke: #000000; stroke-opacity: 0.8"/>
     <use xlink:href="#m7fc6a16be1" x="827.127273" y="277.651654" style="fill-opacity: 0.8; stroke: #000000; stroke-opacity: 0.8"/>
     <use xlink:href="#m7fc6a16be1" x="860.945455" y="333.739843" style="fill-opacity: 0.8; stroke: #000000; stroke-opacity: 0.8"/>
     <use xlink:href="#m7fc6a16be1" x="894.763636" y="155.950866" style="fill-opacity: 0.8; stroke: #000000; stroke-opacity: 0.8"/>
     <use xlink:href="#m7fc6a16be1" x="928.581818" y="89.28" style="fill-opacity: 0.8; stroke: #000000; stroke-opacity: 0.8"/>
     <use xlink:href="#m7fc6a16be1" x="962.4" y="388.769764" style="fill-opacity: 0.8; stroke: #000000; stroke-opacity: 0.8"/>
     <use xlink:href="#m7fc6a16be1" x="996.218182" y="492.48" style="fill-opacity: 0.8; stroke: #000000; stroke-opacity: 0.8"/>
    </g>
   </g>
   <g id="PolyCollection_1">
    <defs>
     <path id="m3e5a3662cd" d="M 184.581818 -324.927283 
L 184.581818 -189.430408 
L 192.780165 -190.825094 
L 200.978512 -192.013711 
L 209.17686 -193.472331 
L 217.375207 -194.334242 
L 225.573554 -195.947492 
L 233.771901 -197.560742 
L 241.970248 -199.094111 
L 250.168595 -200.464692 
L 258.366942 -201.835274 
L 266.565289 -203.209789 
L 274.763636 -204.603147 
L 282.961983 -204.728395 
L 291.160331 -204.806924 
L 299.358678 -204.885453 
L 307.557025 -205.98882 
L 315.755372 -207.057521 
L 323.953719 -208.544624 
L 332.152066 -209.927773 
L 340.350413 -210.131923 
L 348.54876 -210.818331 
L 356.747107 -212.259087 
L 364.945455 -212.436979 
L 373.143802 -212.660081 
L 381.342149 -214.074592 
L 389.540496 -214.658122 
L 397.738843 -214.934781 
L 405.93719 -215.052619 
L 414.135537 -214.872747 
L 422.333884 -216.053236 
L 430.532231 -216.782933 
L 438.730579 -216.865214 
L 446.928926 -216.769978 
L 455.127273 -216.794895 
L 463.32562 -216.598552 
L 471.523967 -216.493748 
L 479.722314 -216.263288 
L 487.920661 -215.931335 
L 496.119008 -215.883101 
L 504.317355 -216.219235 
L 512.515702 -216.343853 
L 520.71405 -216.689244 
L 528.912397 -215.870554 
L 537.110744 -215.755038 
L 545.309091 -214.640046 
L 553.507438 -214.209827 
L 561.705785 -212.679365 
L 569.904132 -211.264402 
L 578.102479 -210.636386 
L 586.300826 -209.466448 
L 594.499174 -208.995204 
L 602.697521 -207.702528 
L 610.895868 -206.342693 
L 619.094215 -205.026849 
L 627.292562 -203.680418 
L 635.490909 -201.974705 
L 643.689256 -200.041142 
L 651.887603 -198.117997 
L 660.08595 -196.657959 
L 668.284298 -195.647452 
L 676.482645 -194.714708 
L 684.680992 -192.79004 
L 692.879339 -190.815394 
L 701.077686 -188.774975 
L 709.276033 -186.743706 
L 717.47438 -184.818702 
L 725.672727 -183.05446 
L 733.871074 -181.437201 
L 742.069421 -179.926296 
L 750.267769 -178.258508 
L 758.466116 -176.47375 
L 766.664463 -174.526684 
L 774.86281 -172.565219 
L 783.061157 -170.705937 
L 791.259504 -168.940602 
L 799.457851 -167.263756 
L 807.656198 -165.693943 
L 815.854545 -164.092144 
L 824.052893 -162.170001 
L 832.25124 -160.247858 
L 840.449587 -158.357211 
L 848.647934 -156.396643 
L 856.846281 -154.465533 
L 865.044628 -152.560512 
L 873.242975 -150.619901 
L 881.441322 -148.836984 
L 889.639669 -147.155621 
L 897.838017 -145.474259 
L 906.036364 -143.792896 
L 914.234711 -142.111534 
L 922.433058 -140.430171 
L 930.631405 -138.749619 
L 938.829752 -137.074321 
L 947.028099 -135.382525 
L 955.226446 -133.620311 
L 963.424793 -131.858097 
L 971.62314 -130.102487 
L 979.821488 -128.347026 
L 988.019835 -126.591565 
L 996.218182 -124.836104 
L 996.218182 -339.686795 
L 996.218182 -339.686795 
L 988.019835 -338.42317 
L 979.821488 -336.73212 
L 971.62314 -335.039191 
L 963.424793 -333.346261 
L 955.226446 -331.653331 
L 947.028099 -330.114111 
L 938.829752 -329.115196 
L 930.631405 -327.730619 
L 922.433058 -326.550846 
L 914.234711 -325.371074 
L 906.036364 -324.191301 
L 897.838017 -323.006833 
L 889.639669 -321.807166 
L 881.441322 -320.607499 
L 873.242975 -319.407832 
L 865.044628 -318.072995 
L 856.846281 -316.436419 
L 848.647934 -314.799843 
L 840.449587 -313.294925 
L 832.25124 -312.39432 
L 824.052893 -311.487809 
L 815.854545 -310.168951 
L 807.656198 -309.36537 
L 799.457851 -308.709044 
L 791.259504 -307.528345 
L 783.061157 -306.579197 
L 774.86281 -305.797706 
L 766.664463 -304.423367 
L 758.466116 -303.638837 
L 750.267769 -302.854306 
L 742.069421 -302.57917 
L 733.871074 -301.557846 
L 725.672727 -300.497806 
L 717.47438 -299.672052 
L 709.276033 -298.656325 
L 701.077686 -298.016839 
L 692.879339 -297.254478 
L 684.680992 -296.585703 
L 676.482645 -296.049465 
L 668.284298 -295.393582 
L 660.08595 -294.243593 
L 651.887603 -293.052949 
L 643.689256 -292.676834 
L 635.490909 -291.92301 
L 627.292562 -292.248318 
L 619.094215 -291.655493 
L 610.895868 -291.721681 
L 602.697521 -292.162203 
L 594.499174 -292.591132 
L 586.300826 -292.552939 
L 578.102479 -291.622004 
L 569.904132 -290.761082 
L 561.705785 -290.236765 
L 553.507438 -290.354817 
L 545.309091 -290.256993 
L 537.110744 -290.154581 
L 528.912397 -290.07134 
L 520.71405 -289.937604 
L 512.515702 -290.232405 
L 504.317355 -290.98736 
L 496.119008 -291.969076 
L 487.920661 -292.183036 
L 479.722314 -291.366592 
L 471.523967 -291.559347 
L 463.32562 -292.352497 
L 455.127273 -292.161827 
L 446.928926 -292.656634 
L 438.730579 -293.284972 
L 430.532231 -293.907557 
L 422.333884 -294.6738 
L 414.135537 -295.799246 
L 405.93719 -296.504214 
L 397.738843 -297.177514 
L 389.540496 -297.804017 
L 381.342149 -298.420051 
L 373.143802 -299.059494 
L 364.945455 -299.704457 
L 356.747107 -300.508161 
L 348.54876 -302.121314 
L 340.350413 -303.597295 
L 332.152066 -304.096496 
L 323.953719 -304.57687 
L 315.755372 -305.759478 
L 307.557025 -307.071107 
L 299.358678 -307.863656 
L 291.160331 -308.985322 
L 282.961983 -310.240837 
L 274.763636 -311.178863 
L 266.565289 -312.090342 
L 258.366942 -312.984906 
L 250.168595 -314.091619 
L 241.970248 -315.249874 
L 233.771901 -316.905267 
L 225.573554 -318.908861 
L 217.375207 -320.232873 
L 209.17686 -321.88269 
L 200.978512 -323.502589 
L 192.780165 -324.415932 
L 184.581818 -324.927283 
z
" style="stroke: #ffffff; stroke-opacity: 0.15"/>
    </defs>
    <g clip-path="url(#p7654a54ac8)">
     <use xlink:href="#m3e5a3662cd" x="0" y="576" style="fill: #808080; fill-opacity: 0.15; stroke: #ffffff; stroke-opacity: 0.15"/>
    </g>
   </g>
   <g id="line2d_15">
    <path d="M 184.581818 306.791462 
L 192.780165 307.175103 
L 200.978512 307.558743 
L 209.17686 307.942384 
L 217.375207 308.326024 
L 225.573554 308.709665 
L 233.771901 309.093305 
L 241.970248 309.476946 
L 250.168595 309.860587 
L 258.366942 310.244227 
L 266.565289 310.627868 
L 274.763636 311.011508 
L 282.961983 311.395149 
L 291.160331 311.778789 
L 299.358678 312.16243 
L 307.557025 312.54607 
L 315.755372 312.929711 
L 323.953719 313.313351 
L 332.152066 313.696992 
L 340.350413 314.080633 
L 348.54876 314.464273 
L 356.747107 314.847914 
L 364.945455 315.231554 
L 373.143802 315.615195 
L 381.342149 315.998835 
L 389.540496 316.382476 
L 397.738843 316.766116 
L 405.93719 317.149757 
L 414.135537 317.533398 
L 422.333884 317.917038 
L 430.532231 318.300679 
L 438.730579 318.684319 
L 446.928926 319.06796 
L 455.127273 319.4516 
L 463.32562 319.835241 
L 471.523967 320.218881 
L 479.722314 320.602522 
L 487.920661 320.986162 
L 496.119008 321.369803 
L 504.317355 321.753444 
L 512.515702 322.137084 
L 520.71405 322.520725 
L 528.912397 322.904365 
L 537.110744 323.288006 
L 545.309091 323.671646 
L 553.507438 324.055287 
L 561.705785 324.438927 
L 569.904132 324.822568 
L 578.102479 325.206208 
L 586.300826 325.589849 
L 594.499174 325.97349 
L 602.697521 326.35713 
L 610.895868 326.740771 
L 619.094215 327.124411 
L 627.292562 327.508052 
L 635.490909 327.891692 
L 643.689256 328.275333 
L 651.887603 328.658973 
L 660.08595 329.042614 
L 668.284298 329.426255 
L 676.482645 329.809895 
L 684.680992 330.193536 
L 692.879339 330.577176 
L 701.077686 330.960817 
L 709.276033 331.344457 
L 717.47438 331.728098 
L 725.672727 332.111738 
L 733.871074 332.495379 
L 742.069421 332.879019 
L 750.267769 333.26266 
L 758.466116 333.646301 
L 766.664463 334.029941 
L 774.86281 334.413582 
L 783.061157 334.797222 
L 791.259504 335.180863 
L 799.457851 335.564503 
L 807.656198 335.948144 
L 815.854545 336.331784 
L 824.052893 336.715425 
L 832.25124 337.099065 
L 840.449587 337.482706 
L 848.647934 337.866347 
L 856.846281 338.249987 
L 865.044628 338.633628 
L 873.242975 339.017268 
L 881.441322 339.400909 
L 889.639669 339.784549 
L 897.838017 340.16819 
L 906.036364 340.55183 
L 914.234711 340.935471 
L 922.433058 341.319112 
L 930.631405 341.702752 
L 938.829752 342.086393 
L 947.028099 342.470033 
L 955.226446 342.853674 
L 963.424793 343.237314 
L 971.62314 343.620955 
L 979.821488 344.004595 
L 988.019835 344.388236 
L 996.218182 344.771876 
" clip-path="url(#p7654a54ac8)" style="fill: none; stroke: #808080; stroke-width: 2.25; stroke-linecap: round"/>
   </g>
  </g>
 </g>
 <defs>
  <clipPath id="p7654a54ac8">
   <rect x="144" y="69.12" width="892.8" height="443.52"/>
  </clipPath>
 </defs>
</svg>
