<?xml version="1.0" encoding="utf-8" standalone="no"?>
<!DOCTYPE svg PUBLIC "-//W3C//DTD SVG 1.1//EN"
  "http://www.w3.org/Graphics/SVG/1.1/DTD/svg11.dtd">
<svg xmlns:xlink="http://www.w3.org/1999/xlink" width="1152pt" height="576pt" viewBox="0 0 1152 576" xmlns="http://www.w3.org/2000/svg" version="1.1">
 <metadata>
  <rdf:RDF xmlns:dc="http://purl.org/dc/elements/1.1/" xmlns:cc="http://creativecommons.org/ns#" xmlns:rdf="http://www.w3.org/1999/02/22-rdf-syntax-ns#">
   <cc:Work>
    <dc:type rdf:resource="http://purl.org/dc/dcmitype/StillImage"/>
    <dc:date>2022-11-08T00:26:57.279433</dc:date>
    <dc:format>image/svg+xml</dc:format>
    <dc:creator>
     <cc:Agent>
      <dc:title>Matplotlib v3.5.2, https://matplotlib.org/</dc:title>
     </cc:Agent>
    </dc:creator>
   </cc:Work>
  </rdf:RDF>
 </metadata>
 <defs>
  <style type="text/css">*{stroke-linejoin: round; stroke-linecap: butt}</style>
 </defs>
 <g id="figure_1">
  <g id="patch_1">
   <path d="M 0 576 
L 1152 576 
L 1152 0 
L 0 0 
z
" style="fill: #ffffff"/>
  </g>
  <g id="axes_1">
   <g id="patch_2">
    <path d="M 144 512.64 
L 1036.8 512.64 
L 1036.8 69.12 
L 144 69.12 
z
" style="fill: #ffffff"/>
   </g>
   <g id="matplotlib.axis_1">
    <g id="xtick_1">
     <g id="line2d_1">
      <path d="M 252.218182 512.64 
L 252.218182 69.12 
" clip-path="url(#paa219f677a)" style="fill: none; stroke: #cccccc; stroke-linecap: round"/>
     </g>
     <g id="text_1">
      <!-- 2000 -->
      <g style="fill: #262626" transform="translate(234.423182 533.5925)scale(0.16 -0.16)">
       <defs>
        <path id="ArialMT-32" d="M 3222 541 
L 3222 0 
L 194 0 
Q 188 203 259 391 
Q 375 700 629 1000 
Q 884 1300 1366 1694 
Q 2113 2306 2375 2664 
Q 2638 3022 2638 3341 
Q 2638 3675 2398 3904 
Q 2159 4134 1775 4134 
Q 1369 4134 1125 3890 
Q 881 3647 878 3216 
L 300 3275 
Q 359 3922 746 4261 
Q 1134 4600 1788 4600 
Q 2447 4600 2831 4234 
Q 3216 3869 3216 3328 
Q 3216 3053 3103 2787 
Q 2991 2522 2730 2228 
Q 2469 1934 1863 1422 
Q 1356 997 1212 845 
Q 1069 694 975 541 
L 3222 541 
z
" transform="scale(0.015625)"/>
        <path id="ArialMT-30" d="M 266 2259 
Q 266 3072 433 3567 
Q 600 4063 929 4331 
Q 1259 4600 1759 4600 
Q 2128 4600 2406 4451 
Q 2684 4303 2865 4023 
Q 3047 3744 3150 3342 
Q 3253 2941 3253 2259 
Q 3253 1453 3087 958 
Q 2922 463 2592 192 
Q 2263 -78 1759 -78 
Q 1097 -78 719 397 
Q 266 969 266 2259 
z
M 844 2259 
Q 844 1131 1108 757 
Q 1372 384 1759 384 
Q 2147 384 2411 759 
Q 2675 1134 2675 2259 
Q 2675 3391 2411 3762 
Q 2147 4134 1753 4134 
Q 1366 4134 1134 3806 
Q 844 3388 844 2259 
z
" transform="scale(0.015625)"/>
       </defs>
       <use xlink:href="#ArialMT-32"/>
       <use xlink:href="#ArialMT-30" x="55.615234"/>
       <use xlink:href="#ArialMT-30" x="111.230469"/>
       <use xlink:href="#ArialMT-30" x="166.845703"/>
      </g>
     </g>
    </g>
    <g id="xtick_2">
     <g id="line2d_2">
      <path d="M 421.309091 512.64 
L 421.309091 69.12 
" clip-path="url(#paa219f677a)" style="fill: none; stroke: #cccccc; stroke-linecap: round"/>
     </g>
     <g id="text_2">
      <!-- 2005 -->
      <g style="fill: #262626" transform="translate(403.514091 533.5925)scale(0.16 -0.16)">
       <defs>
        <path id="ArialMT-35" d="M 266 1200 
L 856 1250 
Q 922 819 1161 601 
Q 1400 384 1738 384 
Q 2144 384 2425 690 
Q 2706 997 2706 1503 
Q 2706 1984 2436 2262 
Q 2166 2541 1728 2541 
Q 1456 2541 1237 2417 
Q 1019 2294 894 2097 
L 366 2166 
L 809 4519 
L 3088 4519 
L 3088 3981 
L 1259 3981 
L 1013 2750 
Q 1425 3038 1878 3038 
Q 2478 3038 2890 2622 
Q 3303 2206 3303 1553 
Q 3303 931 2941 478 
Q 2500 -78 1738 -78 
Q 1113 -78 717 272 
Q 322 622 266 1200 
z
" transform="scale(0.015625)"/>
       </defs>
       <use xlink:href="#ArialMT-32"/>
       <use xlink:href="#ArialMT-30" x="55.615234"/>
       <use xlink:href="#ArialMT-30" x="111.230469"/>
       <use xlink:href="#ArialMT-35" x="166.845703"/>
      </g>
     </g>
    </g>
    <g id="xtick_3">
     <g id="line2d_3">
      <path d="M 590.4 512.64 
L 590.4 69.12 
" clip-path="url(#paa219f677a)" style="fill: none; stroke: #cccccc; stroke-linecap: round"/>
     </g>
     <g id="text_3">
      <!-- 2010 -->
      <g style="fill: #262626" transform="translate(572.605 533.5925)scale(0.16 -0.16)">
       <defs>
        <path id="ArialMT-31" d="M 2384 0 
L 1822 0 
L 1822 3584 
Q 1619 3391 1289 3197 
Q 959 3003 697 2906 
L 697 3450 
Q 1169 3672 1522 3987 
Q 1875 4303 2022 4600 
L 2384 4600 
L 2384 0 
z
" transform="scale(0.015625)"/>
       </defs>
       <use xlink:href="#ArialMT-32"/>
       <use xlink:href="#ArialMT-30" x="55.615234"/>
       <use xlink:href="#ArialMT-31" x="111.230469"/>
       <use xlink:href="#ArialMT-30" x="166.845703"/>
      </g>
     </g>
    </g>
    <g id="xtick_4">
     <g id="line2d_4">
      <path d="M 759.490909 512.64 
L 759.490909 69.12 
" clip-path="url(#paa219f677a)" style="fill: none; stroke: #cccccc; stroke-linecap: round"/>
     </g>
     <g id="text_4">
      <!-- 2015 -->
      <g style="fill: #262626" transform="translate(741.695909 533.5925)scale(0.16 -0.16)">
       <use xlink:href="#ArialMT-32"/>
       <use xlink:href="#ArialMT-30" x="55.615234"/>
       <use xlink:href="#ArialMT-31" x="111.230469"/>
       <use xlink:href="#ArialMT-35" x="166.845703"/>
      </g>
     </g>
    </g>
    <g id="xtick_5">
     <g id="line2d_5">
      <path d="M 928.581818 512.64 
L 928.581818 69.12 
" clip-path="url(#paa219f677a)" style="fill: none; stroke: #cccccc; stroke-linecap: round"/>
     </g>
     <g id="text_5">
      <!-- 2020 -->
      <g style="fill: #262626" transform="translate(910.786818 533.5925)scale(0.16 -0.16)">
       <use xlink:href="#ArialMT-32"/>
       <use xlink:href="#ArialMT-30" x="55.615234"/>
       <use xlink:href="#ArialMT-32" x="111.230469"/>
       <use xlink:href="#ArialMT-30" x="166.845703"/>
      </g>
     </g>
    </g>
   </g>
   <g id="matplotlib.axis_2">
    <g id="ytick_1">
     <g id="line2d_6">
      <path d="M 144 472.505054 
L 1036.8 472.505054 
" clip-path="url(#paa219f677a)" style="fill: none; stroke: #cccccc; stroke-linecap: round"/>
     </g>
     <g id="text_6">
      <!-- 25 -->
      <g style="fill: #262626" transform="translate(116.705 478.231304)scale(0.16 -0.16)">
       <use xlink:href="#ArialMT-32"/>
       <use xlink:href="#ArialMT-35" x="55.615234"/>
      </g>
     </g>
    </g>
    <g id="ytick_2">
     <g id="line2d_7">
      <path d="M 144 416.478 
L 1036.8 416.478 
" clip-path="url(#paa219f677a)" style="fill: none; stroke: #cccccc; stroke-linecap: round"/>
     </g>
     <g id="text_7">
      <!-- 50 -->
      <g style="fill: #262626" transform="translate(116.705 422.20425)scale(0.16 -0.16)">
       <use xlink:href="#ArialMT-35"/>
       <use xlink:href="#ArialMT-30" x="55.615234"/>
      </g>
     </g>
    </g>
    <g id="ytick_3">
     <g id="line2d_8">
      <path d="M 144 360.450945 
L 1036.8 360.450945 
" clip-path="url(#paa219f677a)" style="fill: none; stroke: #cccccc; stroke-linecap: round"/>
     </g>
     <g id="text_8">
      <!-- 75 -->
      <g style="fill: #262626" transform="translate(116.705 366.177195)scale(0.16 -0.16)">
       <defs>
        <path id="ArialMT-37" d="M 303 3981 
L 303 4522 
L 3269 4522 
L 3269 4084 
Q 2831 3619 2401 2847 
Q 1972 2075 1738 1259 
Q 1569 684 1522 0 
L 944 0 
Q 953 541 1156 1306 
Q 1359 2072 1739 2783 
Q 2119 3494 2547 3981 
L 303 3981 
z
" transform="scale(0.015625)"/>
       </defs>
       <use xlink:href="#ArialMT-37"/>
       <use xlink:href="#ArialMT-35" x="55.615234"/>
      </g>
     </g>
    </g>
    <g id="ytick_4">
     <g id="line2d_9">
      <path d="M 144 304.42389 
L 1036.8 304.42389 
" clip-path="url(#paa219f677a)" style="fill: none; stroke: #cccccc; stroke-linecap: round"/>
     </g>
     <g id="text_9">
      <!-- 100 -->
      <g style="fill: #262626" transform="translate(107.8075 310.15014)scale(0.16 -0.16)">
       <use xlink:href="#ArialMT-31"/>
       <use xlink:href="#ArialMT-30" x="55.615234"/>
       <use xlink:href="#ArialMT-30" x="111.230469"/>
      </g>
     </g>
    </g>
    <g id="ytick_5">
     <g id="line2d_10">
      <path d="M 144 248.396835 
L 1036.8 248.396835 
" clip-path="url(#paa219f677a)" style="fill: none; stroke: #cccccc; stroke-linecap: round"/>
     </g>
     <g id="text_10">
      <!-- 125 -->
      <g style="fill: #262626" transform="translate(107.8075 254.123085)scale(0.16 -0.16)">
       <use xlink:href="#ArialMT-31"/>
       <use xlink:href="#ArialMT-32" x="55.615234"/>
       <use xlink:href="#ArialMT-35" x="111.230469"/>
      </g>
     </g>
    </g>
    <g id="ytick_6">
     <g id="line2d_11">
      <path d="M 144 192.369781 
L 1036.8 192.369781 
" clip-path="url(#paa219f677a)" style="fill: none; stroke: #cccccc; stroke-linecap: round"/>
     </g>
     <g id="text_11">
      <!-- 150 -->
      <g style="fill: #262626" transform="translate(107.8075 198.096031)scale(0.16 -0.16)">
       <use xlink:href="#ArialMT-31"/>
       <use xlink:href="#ArialMT-35" x="55.615234"/>
       <use xlink:href="#ArialMT-30" x="111.230469"/>
      </g>
     </g>
    </g>
    <g id="ytick_7">
     <g id="line2d_12">
      <path d="M 144 136.342726 
L 1036.8 136.342726 
" clip-path="url(#paa219f677a)" style="fill: none; stroke: #cccccc; stroke-linecap: round"/>
     </g>
     <g id="text_12">
      <!-- 175 -->
      <g style="fill: #262626" transform="translate(107.8075 142.068976)scale(0.16 -0.16)">
       <use xlink:href="#ArialMT-31"/>
       <use xlink:href="#ArialMT-37" x="55.615234"/>
       <use xlink:href="#ArialMT-35" x="111.230469"/>
      </g>
     </g>
    </g>
    <g id="ytick_8">
     <g id="line2d_13">
      <path d="M 144 80.315671 
L 1036.8 80.315671 
" clip-path="url(#paa219f677a)" style="fill: none; stroke: #cccccc; stroke-linecap: round"/>
     </g>
     <g id="text_13">
      <!-- 200 -->
      <g style="fill: #262626" transform="translate(107.8075 86.041921)scale(0.16 -0.16)">
       <use xlink:href="#ArialMT-32"/>
       <use xlink:href="#ArialMT-30" x="55.615234"/>
       <use xlink:href="#ArialMT-30" x="111.230469"/>
      </g>
     </g>
    </g>
   </g>
   <g id="PathCollection_1">
    <defs>
     <path id="m0b16b96374" d="M 0 3 
C 0.795609 3 1.55874 2.683901 2.12132 2.12132 
C 2.683901 1.55874 3 0.795609 3 0 
C 3 -0.795609 2.683901 -1.55874 2.12132 -2.12132 
C 1.55874 -2.683901 0.795609 -3 0 -3 
C -0.795609 -3 -1.55874 -2.683901 -2.12132 -2.12132 
C -2.683901 -1.55874 -3 -0.795609 -3 0 
C -3 0.795609 -2.683901 1.55874 -2.12132 2.12132 
C -1.55874 2.683901 -0.795609 3 0 3 
z
" style="stroke: #000000; stroke-opacity: 0.8"/>
    </defs>
    <g clip-path="url(#paa219f677a)">
     <use xlink:href="#m0b16b96374" x="184.581818" y="89.28" style="fill-opacity: 0.8; stroke: #000000; stroke-opacity: 0.8"/>
     <use xlink:href="#m0b16b96374" x="218.4" y="257.361164" style="fill-opacity: 0.8; stroke: #000000; stroke-opacity: 0.8"/>
     <use xlink:href="#m0b16b96374" x="252.218182" y="270.807657" style="fill-opacity: 0.8; stroke: #000000; stroke-opacity: 0.8"/>
     <use xlink:href="#m0b16b96374" x="286.036364" y="169.958959" style="fill-opacity: 0.8; stroke: #000000; stroke-opacity: 0.8"/>
     <use xlink:href="#m0b16b96374" x="319.854545" y="219.262767" style="fill-opacity: 0.8; stroke: #000000; stroke-opacity: 0.8"/>
     <use xlink:href="#m0b16b96374" x="353.672727" y="176.682205" style="fill-opacity: 0.8; stroke: #000000; stroke-opacity: 0.8"/>
     <use xlink:href="#m0b16b96374" x="387.490909" y="290.977397" style="fill-opacity: 0.8; stroke: #000000; stroke-opacity: 0.8"/>
     <use xlink:href="#m0b16b96374" x="421.309091" y="255.120082" style="fill-opacity: 0.8; stroke: #000000; stroke-opacity: 0.8"/>
     <use xlink:href="#m0b16b96374" x="455.127273" y="277.530904" style="fill-opacity: 0.8; stroke: #000000; stroke-opacity: 0.8"/>
     <use xlink:href="#m0b16b96374" x="488.945455" y="342.522287" style="fill-opacity: 0.8; stroke: #000000; stroke-opacity: 0.8"/>
     <use xlink:href="#m0b16b96374" x="522.763636" y="414.236917" style="fill-opacity: 0.8; stroke: #000000; stroke-opacity: 0.8"/>
     <use xlink:href="#m0b16b96374" x="556.581818" y="405.272589" style="fill-opacity: 0.8; stroke: #000000; stroke-opacity: 0.8"/>
     <use xlink:href="#m0b16b96374" x="590.4" y="409.754753" style="fill-opacity: 0.8; stroke: #000000; stroke-opacity: 0.8"/>
     <use xlink:href="#m0b16b96374" x="624.218182" y="389.585013" style="fill-opacity: 0.8; stroke: #000000; stroke-opacity: 0.8"/>
     <use xlink:href="#m0b16b96374" x="658.036364" y="320.111465" style="fill-opacity: 0.8; stroke: #000000; stroke-opacity: 0.8"/>
     <use xlink:href="#m0b16b96374" x="691.854545" y="405.272589" style="fill-opacity: 0.8; stroke: #000000; stroke-opacity: 0.8"/>
     <use xlink:href="#m0b16b96374" x="725.672727" y="434.406657" style="fill-opacity: 0.8; stroke: #000000; stroke-opacity: 0.8"/>
     <use xlink:href="#m0b16b96374" x="759.490909" y="443.370986" style="fill-opacity: 0.8; stroke: #000000; stroke-opacity: 0.8"/>
     <use xlink:href="#m0b16b96374" x="793.309091" y="407.513671" style="fill-opacity: 0.8; stroke: #000000; stroke-opacity: 0.8"/>
     <use xlink:href="#m0b16b96374" x="827.127273" y="389.585013" style="fill-opacity: 0.8; stroke: #000000; stroke-opacity: 0.8"/>
     <use xlink:href="#m0b16b96374" x="860.945455" y="400.790424" style="fill-opacity: 0.8; stroke: #000000; stroke-opacity: 0.8"/>
     <use xlink:href="#m0b16b96374" x="894.763636" y="239.432507" style="fill-opacity: 0.8; stroke: #000000; stroke-opacity: 0.8"/>
     <use xlink:href="#m0b16b96374" x="928.581818" y="304.42389" style="fill-opacity: 0.8; stroke: #000000; stroke-opacity: 0.8"/>
     <use xlink:href="#m0b16b96374" x="962.4" y="371.656356" style="fill-opacity: 0.8; stroke: #000000; stroke-opacity: 0.8"/>
     <use xlink:href="#m0b16b96374" x="996.218182" y="436.647739" style="fill-opacity: 0.8; stroke: #000000; stroke-opacity: 0.8"/>
    </g>
   </g>
   <g id="PolyCollection_1">
    <defs>
     <path id="m3dd7cb5b98" d="M 184.581818 -408.109521 
L 184.581818 -288.542934 
L 192.780165 -287.705361 
L 200.978512 -286.416746 
L 209.17686 -285.339636 
L 217.375207 -284.269547 
L 225.573554 -283.204901 
L 233.771901 -282.140254 
L 241.970248 -281.075608 
L 250.168595 -280.010962 
L 258.366942 -278.915274 
L 266.565289 -277.43635 
L 274.763636 -275.957426 
L 282.961983 -274.687736 
L 291.160331 -273.595641 
L 299.358678 -272.510293 
L 307.557025 -271.424944 
L 315.755372 -270.339595 
L 323.953719 -269.254246 
L 332.152066 -268.168897 
L 340.350413 -267.083549 
L 348.54876 -266.033062 
L 356.747107 -264.947272 
L 364.945455 -263.816786 
L 373.143802 -262.722336 
L 381.342149 -261.234068 
L 389.540496 -260.016351 
L 397.738843 -259.104101 
L 405.93719 -258.192565 
L 414.135537 -256.578483 
L 422.333884 -254.93717 
L 430.532231 -253.993814 
L 438.730579 -252.363951 
L 446.928926 -251.402431 
L 455.127273 -250.168989 
L 463.32562 -248.402003 
L 471.523967 -246.610453 
L 479.722314 -244.726249 
L 487.920661 -242.784966 
L 496.119008 -241.766392 
L 504.317355 -240.374418 
L 512.515702 -238.609624 
L 520.71405 -236.833696 
L 528.912397 -234.673695 
L 537.110744 -232.723254 
L 545.309091 -230.803754 
L 553.507438 -228.854069 
L 561.705785 -227.681177 
L 569.904132 -225.85576 
L 578.102479 -224.201435 
L 586.300826 -222.584851 
L 594.499174 -220.591734 
L 602.697521 -219.113979 
L 610.895868 -217.335488 
L 619.094215 -215.563926 
L 627.292562 -213.260978 
L 635.490909 -211.029026 
L 643.689256 -208.885703 
L 651.887603 -206.186001 
L 660.08595 -203.693787 
L 668.284298 -201.483504 
L 676.482645 -199.57042 
L 684.680992 -197.47472 
L 692.879339 -194.808313 
L 701.077686 -191.874991 
L 709.276033 -189.530846 
L 717.47438 -186.712059 
L 725.672727 -184.398264 
L 733.871074 -181.366247 
L 742.069421 -178.329726 
L 750.267769 -175.466571 
L 758.466116 -172.765658 
L 766.664463 -169.750387 
L 774.86281 -167.426443 
L 783.061157 -164.73376 
L 791.259504 -161.314438 
L 799.457851 -158.426375 
L 807.656198 -155.583395 
L 815.854545 -152.740416 
L 824.052893 -149.899868 
L 832.25124 -147.064079 
L 840.449587 -144.191445 
L 848.647934 -141.002998 
L 856.846281 -137.769849 
L 865.044628 -134.375586 
L 873.242975 -130.981323 
L 881.441322 -127.587061 
L 889.639669 -124.192798 
L 897.838017 -120.915121 
L 906.036364 -117.978942 
L 914.234711 -115.042763 
L 922.433058 -112.106584 
L 930.631405 -109.067242 
L 938.829752 -105.86674 
L 947.028099 -102.669101 
L 955.226446 -99.475086 
L 963.424793 -96.28107 
L 971.62314 -93.088204 
L 979.821488 -89.898803 
L 988.019835 -86.709401 
L 996.218182 -83.52 
L 996.218182 -205.472101 
L 996.218182 -205.472101 
L 988.019835 -206.718216 
L 979.821488 -207.976714 
L 971.62314 -209.228832 
L 963.424793 -210.473299 
L 955.226446 -211.711758 
L 947.028099 -212.959341 
L 938.829752 -214.328665 
L 930.631405 -215.608424 
L 922.433058 -216.809888 
L 914.234711 -218.22568 
L 906.036364 -219.641471 
L 897.838017 -220.708088 
L 889.639669 -221.701996 
L 881.441322 -222.95339 
L 873.242975 -224.200394 
L 865.044628 -225.469377 
L 856.846281 -227.112258 
L 848.647934 -228.126652 
L 840.449587 -229.454517 
L 832.25124 -231.346085 
L 824.052893 -233.017151 
L 815.854545 -234.124632 
L 807.656198 -234.747981 
L 799.457851 -235.612772 
L 791.259504 -236.650272 
L 783.061157 -237.867257 
L 774.86281 -239.601888 
L 766.664463 -240.615197 
L 758.466116 -242.69561 
L 750.267769 -244.336852 
L 742.069421 -245.260441 
L 733.871074 -246.913143 
L 725.672727 -248.388329 
L 717.47438 -249.95936 
L 709.276033 -251.516661 
L 701.077686 -253.268359 
L 692.879339 -255.436105 
L 684.680992 -257.2691 
L 676.482645 -259.047945 
L 668.284298 -260.666868 
L 660.08595 -262.585746 
L 651.887603 -264.017697 
L 643.689256 -265.692419 
L 635.490909 -267.685562 
L 627.292562 -269.421243 
L 619.094215 -271.304251 
L 610.895868 -273.460783 
L 602.697521 -275.73195 
L 594.499174 -277.835893 
L 586.300826 -279.860009 
L 578.102479 -281.894329 
L 569.904132 -283.92703 
L 561.705785 -285.944726 
L 553.507438 -287.962161 
L 545.309091 -290.275369 
L 537.110744 -292.315252 
L 528.912397 -294.257241 
L 520.71405 -296.467457 
L 512.515702 -298.729173 
L 504.317355 -301.000103 
L 496.119008 -303.805217 
L 487.920661 -306.516048 
L 479.722314 -308.708933 
L 471.523967 -310.880226 
L 463.32562 -312.861976 
L 455.127273 -315.257741 
L 446.928926 -317.76305 
L 438.730579 -320.634276 
L 430.532231 -323.094402 
L 422.333884 -326.089484 
L 414.135537 -328.500561 
L 405.93719 -331.362464 
L 397.738843 -334.082303 
L 389.540496 -336.424728 
L 381.342149 -339.173174 
L 373.143802 -341.969658 
L 364.945455 -344.748538 
L 356.747107 -347.401808 
L 348.54876 -350.009984 
L 340.350413 -352.878067 
L 332.152066 -355.75108 
L 323.953719 -358.224091 
L 315.755372 -361.154079 
L 307.557025 -364.080148 
L 299.358678 -367.021313 
L 291.160331 -370.053498 
L 282.961983 -372.79101 
L 274.763636 -375.585058 
L 266.565289 -378.229701 
L 258.366942 -380.971312 
L 250.168595 -384.510375 
L 241.970248 -387.389853 
L 233.771901 -390.26737 
L 225.573554 -393.144887 
L 217.375207 -396.020909 
L 209.17686 -398.891317 
L 200.978512 -401.769622 
L 192.780165 -404.65247 
L 184.581818 -408.109521 
z
" style="stroke: #ffffff; stroke-opacity: 0.15"/>
    </defs>
    <g clip-path="url(#paa219f677a)">
     <use xlink:href="#m3dd7cb5b98" x="0" y="576" style="fill: #808080; fill-opacity: 0.15; stroke: #ffffff; stroke-opacity: 0.15"/>
    </g>
   </g>
   <g id="line2d_14">
    <path d="M 184.581818 217.952596 
L 192.780165 220.112393 
L 200.978512 222.27219 
L 209.17686 224.431988 
L 217.375207 226.591785 
L 225.573554 228.751582 
L 233.771901 230.911379 
L 241.970248 233.071177 
L 250.168595 235.230974 
L 258.366942 237.390771 
L 266.565289 239.550568 
L 274.763636 241.710366 
L 282.961983 243.870163 
L 291.160331 246.02996 
L 299.358678 248.189757 
L 307.557025 250.349555 
L 315.755372 252.509352 
L 323.953719 254.669149 
L 332.152066 256.828946 
L 340.350413 258.988744 
L 348.54876 261.148541 
L 356.747107 263.308338 
L 364.945455 265.468135 
L 373.143802 267.627933 
L 381.342149 269.78773 
L 389.540496 271.947527 
L 397.738843 274.107324 
L 405.93719 276.267122 
L 414.135537 278.426919 
L 422.333884 280.586716 
L 430.532231 282.746513 
L 438.730579 284.906311 
L 446.928926 287.066108 
L 455.127273 289.225905 
L 463.32562 291.385702 
L 471.523967 293.5455 
L 479.722314 295.705297 
L 487.920661 297.865094 
L 496.119008 300.024891 
L 504.317355 302.184689 
L 512.515702 304.344486 
L 520.71405 306.504283 
L 528.912397 308.66408 
L 537.110744 310.823878 
L 545.309091 312.983675 
L 553.507438 315.143472 
L 561.705785 317.303269 
L 569.904132 319.463067 
L 578.102479 321.622864 
L 586.300826 323.782661 
L 594.499174 325.942458 
L 602.697521 328.102256 
L 610.895868 330.262053 
L 619.094215 332.42185 
L 627.292562 334.581647 
L 635.490909 336.741445 
L 643.689256 338.901242 
L 651.887603 341.061039 
L 660.08595 343.220836 
L 668.284298 345.380634 
L 676.482645 347.540431 
L 684.680992 349.700228 
L 692.879339 351.860025 
L 701.077686 354.019823 
L 709.276033 356.17962 
L 717.47438 358.339417 
L 725.672727 360.499214 
L 733.871074 362.659012 
L 742.069421 364.818809 
L 750.267769 366.978606 
L 758.466116 369.138403 
L 766.664463 371.298201 
L 774.86281 373.457998 
L 783.061157 375.617795 
L 791.259504 377.777592 
L 799.457851 379.93739 
L 807.656198 382.097187 
L 815.854545 384.256984 
L 824.052893 386.416781 
L 832.25124 388.576579 
L 840.449587 390.736376 
L 848.647934 392.896173 
L 856.846281 395.05597 
L 865.044628 397.215768 
L 873.242975 399.375565 
L 881.441322 401.535362 
L 889.639669 403.695159 
L 897.838017 405.854957 
L 906.036364 408.014754 
L 914.234711 410.174551 
L 922.433058 412.334348 
L 930.631405 414.494146 
L 938.829752 416.653943 
L 947.028099 418.81374 
L 955.226446 420.973537 
L 963.424793 423.133335 
L 971.62314 425.293132 
L 979.821488 427.452929 
L 988.019835 429.612726 
L 996.218182 431.772524 
" clip-path="url(#paa219f677a)" style="fill: none; stroke: #808080; stroke-width: 2.25; stroke-linecap: round"/>
   </g>
  </g>
 </g>
 <defs>
  <clipPath id="paa219f677a">
   <rect x="144" y="69.12" width="892.8" height="443.52"/>
  </clipPath>
 </defs>
</svg>
