<?xml version="1.0" encoding="utf-8" standalone="no"?>
<!DOCTYPE svg PUBLIC "-//W3C//DTD SVG 1.1//EN"
  "http://www.w3.org/Graphics/SVG/1.1/DTD/svg11.dtd">
<svg xmlns:xlink="http://www.w3.org/1999/xlink" width="1152pt" height="576pt" viewBox="0 0 1152 576" xmlns="http://www.w3.org/2000/svg" version="1.1">
 <metadata>
  <rdf:RDF xmlns:dc="http://purl.org/dc/elements/1.1/" xmlns:cc="http://creativecommons.org/ns#" xmlns:rdf="http://www.w3.org/1999/02/22-rdf-syntax-ns#">
   <cc:Work>
    <dc:type rdf:resource="http://purl.org/dc/dcmitype/StillImage"/>
    <dc:date>2022-11-08T20:44:57.653906</dc:date>
    <dc:format>image/svg+xml</dc:format>
    <dc:creator>
     <cc:Agent>
      <dc:title>Matplotlib v3.5.2, https://matplotlib.org/</dc:title>
     </cc:Agent>
    </dc:creator>
   </cc:Work>
  </rdf:RDF>
 </metadata>
 <defs>
  <style type="text/css">*{stroke-linejoin: round; stroke-linecap: butt}</style>
 </defs>
 <g id="figure_1">
  <g id="patch_1">
   <path d="M 0 576 
L 1152 576 
L 1152 0 
L 0 0 
z
" style="fill: #ffffff"/>
  </g>
  <g id="axes_1">
   <g id="patch_2">
    <path d="M 144 512.64 
L 1036.8 512.64 
L 1036.8 69.12 
L 144 69.12 
z
" style="fill: #ffffff"/>
   </g>
   <g id="matplotlib.axis_1">
    <g id="xtick_1">
     <g id="line2d_1">
      <path d="M 252.218182 512.64 
L 252.218182 69.12 
" clip-path="url(#p80ead3776a)" style="fill: none; stroke: #cccccc; stroke-linecap: round"/>
     </g>
     <g id="text_1">
      <!-- 2000 -->
      <g style="fill: #262626" transform="translate(234.423182 533.5925)scale(0.16 -0.16)">
       <defs>
        <path id="ArialMT-32" d="M 3222 541 
L 3222 0 
L 194 0 
Q 188 203 259 391 
Q 375 700 629 1000 
Q 884 1300 1366 1694 
Q 2113 2306 2375 2664 
Q 2638 3022 2638 3341 
Q 2638 3675 2398 3904 
Q 2159 4134 1775 4134 
Q 1369 4134 1125 3890 
Q 881 3647 878 3216 
L 300 3275 
Q 359 3922 746 4261 
Q 1134 4600 1788 4600 
Q 2447 4600 2831 4234 
Q 3216 3869 3216 3328 
Q 3216 3053 3103 2787 
Q 2991 2522 2730 2228 
Q 2469 1934 1863 1422 
Q 1356 997 1212 845 
Q 1069 694 975 541 
L 3222 541 
z
" transform="scale(0.015625)"/>
        <path id="ArialMT-30" d="M 266 2259 
Q 266 3072 433 3567 
Q 600 4063 929 4331 
Q 1259 4600 1759 4600 
Q 2128 4600 2406 4451 
Q 2684 4303 2865 4023 
Q 3047 3744 3150 3342 
Q 3253 2941 3253 2259 
Q 3253 1453 3087 958 
Q 2922 463 2592 192 
Q 2263 -78 1759 -78 
Q 1097 -78 719 397 
Q 266 969 266 2259 
z
M 844 2259 
Q 844 1131 1108 757 
Q 1372 384 1759 384 
Q 2147 384 2411 759 
Q 2675 1134 2675 2259 
Q 2675 3391 2411 3762 
Q 2147 4134 1753 4134 
Q 1366 4134 1134 3806 
Q 844 3388 844 2259 
z
" transform="scale(0.015625)"/>
       </defs>
       <use xlink:href="#ArialMT-32"/>
       <use xlink:href="#ArialMT-30" x="55.615234"/>
       <use xlink:href="#ArialMT-30" x="111.230469"/>
       <use xlink:href="#ArialMT-30" x="166.845703"/>
      </g>
     </g>
    </g>
    <g id="xtick_2">
     <g id="line2d_2">
      <path d="M 421.309091 512.64 
L 421.309091 69.12 
" clip-path="url(#p80ead3776a)" style="fill: none; stroke: #cccccc; stroke-linecap: round"/>
     </g>
     <g id="text_2">
      <!-- 2005 -->
      <g style="fill: #262626" transform="translate(403.514091 533.5925)scale(0.16 -0.16)">
       <defs>
        <path id="ArialMT-35" d="M 266 1200 
L 856 1250 
Q 922 819 1161 601 
Q 1400 384 1738 384 
Q 2144 384 2425 690 
Q 2706 997 2706 1503 
Q 2706 1984 2436 2262 
Q 2166 2541 1728 2541 
Q 1456 2541 1237 2417 
Q 1019 2294 894 2097 
L 366 2166 
L 809 4519 
L 3088 4519 
L 3088 3981 
L 1259 3981 
L 1013 2750 
Q 1425 3038 1878 3038 
Q 2478 3038 2890 2622 
Q 3303 2206 3303 1553 
Q 3303 931 2941 478 
Q 2500 -78 1738 -78 
Q 1113 -78 717 272 
Q 322 622 266 1200 
z
" transform="scale(0.015625)"/>
       </defs>
       <use xlink:href="#ArialMT-32"/>
       <use xlink:href="#ArialMT-30" x="55.615234"/>
       <use xlink:href="#ArialMT-30" x="111.230469"/>
       <use xlink:href="#ArialMT-35" x="166.845703"/>
      </g>
     </g>
    </g>
    <g id="xtick_3">
     <g id="line2d_3">
      <path d="M 590.4 512.64 
L 590.4 69.12 
" clip-path="url(#p80ead3776a)" style="fill: none; stroke: #cccccc; stroke-linecap: round"/>
     </g>
     <g id="text_3">
      <!-- 2010 -->
      <g style="fill: #262626" transform="translate(572.605 533.5925)scale(0.16 -0.16)">
       <defs>
        <path id="ArialMT-31" d="M 2384 0 
L 1822 0 
L 1822 3584 
Q 1619 3391 1289 3197 
Q 959 3003 697 2906 
L 697 3450 
Q 1169 3672 1522 3987 
Q 1875 4303 2022 4600 
L 2384 4600 
L 2384 0 
z
" transform="scale(0.015625)"/>
       </defs>
       <use xlink:href="#ArialMT-32"/>
       <use xlink:href="#ArialMT-30" x="55.615234"/>
       <use xlink:href="#ArialMT-31" x="111.230469"/>
       <use xlink:href="#ArialMT-30" x="166.845703"/>
      </g>
     </g>
    </g>
    <g id="xtick_4">
     <g id="line2d_4">
      <path d="M 759.490909 512.64 
L 759.490909 69.12 
" clip-path="url(#p80ead3776a)" style="fill: none; stroke: #cccccc; stroke-linecap: round"/>
     </g>
     <g id="text_4">
      <!-- 2015 -->
      <g style="fill: #262626" transform="translate(741.695909 533.5925)scale(0.16 -0.16)">
       <use xlink:href="#ArialMT-32"/>
       <use xlink:href="#ArialMT-30" x="55.615234"/>
       <use xlink:href="#ArialMT-31" x="111.230469"/>
       <use xlink:href="#ArialMT-35" x="166.845703"/>
      </g>
     </g>
    </g>
    <g id="xtick_5">
     <g id="line2d_5">
      <path d="M 928.581818 512.64 
L 928.581818 69.12 
" clip-path="url(#p80ead3776a)" style="fill: none; stroke: #cccccc; stroke-linecap: round"/>
     </g>
     <g id="text_5">
      <!-- 2020 -->
      <g style="fill: #262626" transform="translate(910.786818 533.5925)scale(0.16 -0.16)">
       <use xlink:href="#ArialMT-32"/>
       <use xlink:href="#ArialMT-30" x="55.615234"/>
       <use xlink:href="#ArialMT-32" x="111.230469"/>
       <use xlink:href="#ArialMT-30" x="166.845703"/>
      </g>
     </g>
    </g>
   </g>
   <g id="matplotlib.axis_2">
    <g id="ytick_1">
     <g id="line2d_6">
      <path d="M 144 462.975225 
L 1036.8 462.975225 
" clip-path="url(#p80ead3776a)" style="fill: none; stroke: #cccccc; stroke-linecap: round"/>
     </g>
     <g id="text_6">
      <!-- 0.75 -->
      <g style="fill: #262626" transform="translate(103.3625 468.701475)scale(0.16 -0.16)">
       <defs>
        <path id="ArialMT-2e" d="M 581 0 
L 581 641 
L 1222 641 
L 1222 0 
L 581 0 
z
" transform="scale(0.015625)"/>
        <path id="ArialMT-37" d="M 303 3981 
L 303 4522 
L 3269 4522 
L 3269 4084 
Q 2831 3619 2401 2847 
Q 1972 2075 1738 1259 
Q 1569 684 1522 0 
L 944 0 
Q 953 541 1156 1306 
Q 1359 2072 1739 2783 
Q 2119 3494 2547 3981 
L 303 3981 
z
" transform="scale(0.015625)"/>
       </defs>
       <use xlink:href="#ArialMT-30"/>
       <use xlink:href="#ArialMT-2e" x="55.615234"/>
       <use xlink:href="#ArialMT-37" x="83.398438"/>
       <use xlink:href="#ArialMT-35" x="139.013672"/>
      </g>
     </g>
    </g>
    <g id="ytick_2">
     <g id="line2d_7">
      <path d="M 144 411.923962 
L 1036.8 411.923962 
" clip-path="url(#p80ead3776a)" style="fill: none; stroke: #cccccc; stroke-linecap: round"/>
     </g>
     <g id="text_7">
      <!-- 1.00 -->
      <g style="fill: #262626" transform="translate(103.3625 417.650212)scale(0.16 -0.16)">
       <use xlink:href="#ArialMT-31"/>
       <use xlink:href="#ArialMT-2e" x="55.615234"/>
       <use xlink:href="#ArialMT-30" x="83.398438"/>
       <use xlink:href="#ArialMT-30" x="139.013672"/>
      </g>
     </g>
    </g>
    <g id="ytick_3">
     <g id="line2d_8">
      <path d="M 144 360.8727 
L 1036.8 360.8727 
" clip-path="url(#p80ead3776a)" style="fill: none; stroke: #cccccc; stroke-linecap: round"/>
     </g>
     <g id="text_8">
      <!-- 1.25 -->
      <g style="fill: #262626" transform="translate(103.3625 366.59895)scale(0.16 -0.16)">
       <use xlink:href="#ArialMT-31"/>
       <use xlink:href="#ArialMT-2e" x="55.615234"/>
       <use xlink:href="#ArialMT-32" x="83.398438"/>
       <use xlink:href="#ArialMT-35" x="139.013672"/>
      </g>
     </g>
    </g>
    <g id="ytick_4">
     <g id="line2d_9">
      <path d="M 144 309.821438 
L 1036.8 309.821438 
" clip-path="url(#p80ead3776a)" style="fill: none; stroke: #cccccc; stroke-linecap: round"/>
     </g>
     <g id="text_9">
      <!-- 1.50 -->
      <g style="fill: #262626" transform="translate(103.3625 315.547688)scale(0.16 -0.16)">
       <use xlink:href="#ArialMT-31"/>
       <use xlink:href="#ArialMT-2e" x="55.615234"/>
       <use xlink:href="#ArialMT-35" x="83.398438"/>
       <use xlink:href="#ArialMT-30" x="139.013672"/>
      </g>
     </g>
    </g>
    <g id="ytick_5">
     <g id="line2d_10">
      <path d="M 144 258.770175 
L 1036.8 258.770175 
" clip-path="url(#p80ead3776a)" style="fill: none; stroke: #cccccc; stroke-linecap: round"/>
     </g>
     <g id="text_10">
      <!-- 1.75 -->
      <g style="fill: #262626" transform="translate(103.3625 264.496425)scale(0.16 -0.16)">
       <use xlink:href="#ArialMT-31"/>
       <use xlink:href="#ArialMT-2e" x="55.615234"/>
       <use xlink:href="#ArialMT-37" x="83.398438"/>
       <use xlink:href="#ArialMT-35" x="139.013672"/>
      </g>
     </g>
    </g>
    <g id="ytick_6">
     <g id="line2d_11">
      <path d="M 144 207.718913 
L 1036.8 207.718913 
" clip-path="url(#p80ead3776a)" style="fill: none; stroke: #cccccc; stroke-linecap: round"/>
     </g>
     <g id="text_11">
      <!-- 2.00 -->
      <g style="fill: #262626" transform="translate(103.3625 213.445163)scale(0.16 -0.16)">
       <use xlink:href="#ArialMT-32"/>
       <use xlink:href="#ArialMT-2e" x="55.615234"/>
       <use xlink:href="#ArialMT-30" x="83.398438"/>
       <use xlink:href="#ArialMT-30" x="139.013672"/>
      </g>
     </g>
    </g>
    <g id="ytick_7">
     <g id="line2d_12">
      <path d="M 144 156.667651 
L 1036.8 156.667651 
" clip-path="url(#p80ead3776a)" style="fill: none; stroke: #cccccc; stroke-linecap: round"/>
     </g>
     <g id="text_12">
      <!-- 2.25 -->
      <g style="fill: #262626" transform="translate(103.3625 162.393901)scale(0.16 -0.16)">
       <use xlink:href="#ArialMT-32"/>
       <use xlink:href="#ArialMT-2e" x="55.615234"/>
       <use xlink:href="#ArialMT-32" x="83.398438"/>
       <use xlink:href="#ArialMT-35" x="139.013672"/>
      </g>
     </g>
    </g>
    <g id="ytick_8">
     <g id="line2d_13">
      <path d="M 144 105.616388 
L 1036.8 105.616388 
" clip-path="url(#p80ead3776a)" style="fill: none; stroke: #cccccc; stroke-linecap: round"/>
     </g>
     <g id="text_13">
      <!-- 2.50 -->
      <g style="fill: #262626" transform="translate(103.3625 111.342638)scale(0.16 -0.16)">
       <use xlink:href="#ArialMT-32"/>
       <use xlink:href="#ArialMT-2e" x="55.615234"/>
       <use xlink:href="#ArialMT-35" x="83.398438"/>
       <use xlink:href="#ArialMT-30" x="139.013672"/>
      </g>
     </g>
    </g>
   </g>
   <g id="PathCollection_1">
    <defs>
     <path id="m737ae1554e" d="M 0 3 
C 0.795609 3 1.55874 2.683901 2.12132 2.12132 
C 2.683901 1.55874 3 0.795609 3 0 
C 3 -0.795609 2.683901 -1.55874 2.12132 -2.12132 
C 1.55874 -2.683901 0.795609 -3 0 -3 
C -0.795609 -3 -1.55874 -2.683901 -2.12132 -2.12132 
C -2.683901 -1.55874 -3 -0.795609 -3 0 
C -3 0.795609 -2.683901 1.55874 -2.12132 2.12132 
C -1.55874 2.683901 -0.795609 3 0 3 
z
" style="stroke: #000000; stroke-opacity: 0.8"/>
    </defs>
    <g clip-path="url(#p80ead3776a)">
     <use xlink:href="#m737ae1554e" x="184.581818" y="102.998381" style="fill-opacity: 0.8; stroke: #000000; stroke-opacity: 0.8"/>
     <use xlink:href="#m737ae1554e" x="218.4" y="258.03029" style="fill-opacity: 0.8; stroke: #000000; stroke-opacity: 0.8"/>
     <use xlink:href="#m737ae1554e" x="252.218182" y="265.627808" style="fill-opacity: 0.8; stroke: #000000; stroke-opacity: 0.8"/>
     <use xlink:href="#m737ae1554e" x="286.036364" y="191.806826" style="fill-opacity: 0.8; stroke: #000000; stroke-opacity: 0.8"/>
     <use xlink:href="#m737ae1554e" x="319.854545" y="146.457408" style="fill-opacity: 0.8; stroke: #000000; stroke-opacity: 0.8"/>
     <use xlink:href="#m737ae1554e" x="353.672727" y="194.284373" style="fill-opacity: 0.8; stroke: #000000; stroke-opacity: 0.8"/>
     <use xlink:href="#m737ae1554e" x="387.490909" y="283.117696" style="fill-opacity: 0.8; stroke: #000000; stroke-opacity: 0.8"/>
     <use xlink:href="#m737ae1554e" x="421.309091" y="308.560901" style="fill-opacity: 0.8; stroke: #000000; stroke-opacity: 0.8"/>
     <use xlink:href="#m737ae1554e" x="455.127273" y="247.242482" style="fill-opacity: 0.8; stroke: #000000; stroke-opacity: 0.8"/>
     <use xlink:href="#m737ae1554e" x="488.945455" y="338.27623" style="fill-opacity: 0.8; stroke: #000000; stroke-opacity: 0.8"/>
     <use xlink:href="#m737ae1554e" x="522.763636" y="439.612786" style="fill-opacity: 0.8; stroke: #000000; stroke-opacity: 0.8"/>
     <use xlink:href="#m737ae1554e" x="556.581818" y="404.218117" style="fill-opacity: 0.8; stroke: #000000; stroke-opacity: 0.8"/>
     <use xlink:href="#m737ae1554e" x="590.4" y="395.25417" style="fill-opacity: 0.8; stroke: #000000; stroke-opacity: 0.8"/>
     <use xlink:href="#m737ae1554e" x="624.218182" y="381.671356" style="fill-opacity: 0.8; stroke: #000000; stroke-opacity: 0.8"/>
     <use xlink:href="#m737ae1554e" x="658.036364" y="309.821438" style="fill-opacity: 0.8; stroke: #000000; stroke-opacity: 0.8"/>
     <use xlink:href="#m737ae1554e" x="691.854545" y="428.941046" style="fill-opacity: 0.8; stroke: #000000; stroke-opacity: 0.8"/>
     <use xlink:href="#m737ae1554e" x="725.672727" y="451.194168" style="fill-opacity: 0.8; stroke: #000000; stroke-opacity: 0.8"/>
     <use xlink:href="#m737ae1554e" x="759.490909" y="469.717848" style="fill-opacity: 0.8; stroke: #000000; stroke-opacity: 0.8"/>
     <use xlink:href="#m737ae1554e" x="793.309091" y="408.071028" style="fill-opacity: 0.8; stroke: #000000; stroke-opacity: 0.8"/>
     <use xlink:href="#m737ae1554e" x="827.127273" y="390.04486" style="fill-opacity: 0.8; stroke: #000000; stroke-opacity: 0.8"/>
     <use xlink:href="#m737ae1554e" x="860.945455" y="431.372061" style="fill-opacity: 0.8; stroke: #000000; stroke-opacity: 0.8"/>
     <use xlink:href="#m737ae1554e" x="894.763636" y="89.28" style="fill-opacity: 0.8; stroke: #000000; stroke-opacity: 0.8"/>
     <use xlink:href="#m737ae1554e" x="928.581818" y="190.701842" style="fill-opacity: 0.8; stroke: #000000; stroke-opacity: 0.8"/>
     <use xlink:href="#m737ae1554e" x="962.4" y="291.257336" style="fill-opacity: 0.8; stroke: #000000; stroke-opacity: 0.8"/>
     <use xlink:href="#m737ae1554e" x="996.218182" y="346.051356" style="fill-opacity: 0.8; stroke: #000000; stroke-opacity: 0.8"/>
    </g>
   </g>
   <g id="PolyCollection_1">
    <defs>
     <path id="me8797fa682" d="M 184.581818 -396.756094 
L 184.581818 -255.40815 
L 192.780165 -255.083402 
L 200.978512 -254.669316 
L 209.17686 -254.25523 
L 217.375207 -253.841145 
L 225.573554 -253.666374 
L 233.771901 -253.246025 
L 241.970248 -252.826805 
L 250.168595 -252.407584 
L 258.366942 -251.988363 
L 266.565289 -251.816584 
L 274.763636 -251.935223 
L 282.961983 -251.72532 
L 291.160331 -251.836185 
L 299.358678 -251.718552 
L 307.557025 -251.380328 
L 315.755372 -250.857153 
L 323.953719 -250.454418 
L 332.152066 -250.559117 
L 340.350413 -250.684659 
L 348.54876 -250.79762 
L 356.747107 -250.786192 
L 364.945455 -250.947998 
L 373.143802 -250.707678 
L 381.342149 -250.345055 
L 389.540496 -249.547097 
L 397.738843 -248.960229 
L 405.93719 -248.58394 
L 414.135537 -247.786336 
L 422.333884 -247.431602 
L 430.532231 -247.093524 
L 438.730579 -246.453433 
L 446.928926 -245.43694 
L 455.127273 -244.896378 
L 463.32562 -244.265049 
L 471.523967 -244.386898 
L 479.722314 -243.861121 
L 487.920661 -242.492946 
L 496.119008 -240.520611 
L 504.317355 -239.33516 
L 512.515702 -238.551779 
L 520.71405 -238.107364 
L 528.912397 -235.82768 
L 537.110744 -233.716565 
L 545.309091 -232.347563 
L 553.507438 -230.91484 
L 561.705785 -227.739821 
L 569.904132 -226.464433 
L 578.102479 -224.498477 
L 586.300826 -223.19404 
L 594.499174 -220.789654 
L 602.697521 -219.549945 
L 610.895868 -217.265727 
L 619.094215 -215.802033 
L 627.292562 -212.900253 
L 635.490909 -210.70504 
L 643.689256 -207.815728 
L 651.887603 -204.838161 
L 660.08595 -201.827221 
L 668.284298 -198.876265 
L 676.482645 -195.888689 
L 684.680992 -193.120121 
L 692.879339 -190.322282 
L 701.077686 -187.482512 
L 709.276033 -184.72492 
L 717.47438 -181.244619 
L 725.672727 -178.820964 
L 733.871074 -176.079132 
L 742.069421 -172.797777 
L 750.267769 -169.305744 
L 758.466116 -165.964982 
L 766.664463 -162.964654 
L 774.86281 -159.98049 
L 783.061157 -157.487999 
L 791.259504 -154.890911 
L 799.457851 -151.871685 
L 807.656198 -148.854469 
L 815.854545 -146.096428 
L 824.052893 -143.638608 
L 832.25124 -141.180789 
L 840.449587 -138.675439 
L 848.647934 -135.799784 
L 856.846281 -132.998897 
L 865.044628 -130.377669 
L 873.242975 -127.75644 
L 881.441322 -125.082397 
L 889.639669 -122.014563 
L 897.838017 -118.946729 
L 906.036364 -115.878895 
L 914.234711 -112.811061 
L 922.433058 -109.860273 
L 930.631405 -106.973167 
L 938.829752 -104.08606 
L 947.028099 -101.198953 
L 955.226446 -98.311846 
L 963.424793 -95.424739 
L 971.62314 -92.537632 
L 979.821488 -89.650526 
L 988.019835 -86.702639 
L 996.218182 -83.52 
L 996.218182 -287.314036 
L 996.218182 -287.314036 
L 988.019835 -286.908286 
L 979.821488 -287.039024 
L 971.62314 -286.483987 
L 963.424793 -286.113071 
L 955.226446 -285.66263 
L 947.028099 -286.374312 
L 938.829752 -285.978488 
L 930.631405 -286.342052 
L 922.433058 -286.699666 
L 914.234711 -287.05728 
L 906.036364 -287.41412 
L 897.838017 -287.291696 
L 889.639669 -287.7074 
L 881.441322 -288.281641 
L 873.242975 -288.851437 
L 865.044628 -289.252146 
L 856.846281 -289.619235 
L 848.647934 -289.738576 
L 840.449587 -289.162804 
L 832.25124 -288.57551 
L 824.052893 -287.967815 
L 815.854545 -287.461449 
L 807.656198 -287.450811 
L 799.457851 -287.166262 
L 791.259504 -287.458064 
L 783.061157 -287.443198 
L 774.86281 -288.057778 
L 766.664463 -288.392524 
L 758.466116 -289.569585 
L 750.267769 -291.120877 
L 742.069421 -292.256599 
L 733.871074 -293.05386 
L 725.672727 -293.601121 
L 717.47438 -294.106857 
L 709.276033 -295.141606 
L 701.077686 -295.165475 
L 692.879339 -295.375848 
L 684.680992 -295.855784 
L 676.482645 -296.929975 
L 668.284298 -297.854926 
L 660.08595 -298.501364 
L 651.887603 -299.268051 
L 643.689256 -299.174599 
L 635.490909 -299.550257 
L 627.292562 -300.557838 
L 619.094215 -300.989891 
L 610.895868 -301.861782 
L 602.697521 -303.438152 
L 594.499174 -304.214633 
L 586.300826 -305.486462 
L 578.102479 -306.541737 
L 569.904132 -307.456892 
L 561.705785 -308.718281 
L 553.507438 -309.977721 
L 545.309091 -311.22682 
L 537.110744 -311.71115 
L 528.912397 -312.849316 
L 520.71405 -313.526599 
L 512.515702 -314.321969 
L 504.317355 -315.010409 
L 496.119008 -315.964672 
L 487.920661 -316.939797 
L 479.722314 -318.475177 
L 471.523967 -318.612296 
L 463.32562 -320.210081 
L 455.127273 -321.794371 
L 446.928926 -323.301278 
L 438.730579 -323.636654 
L 430.532231 -325.129053 
L 422.333884 -327.076011 
L 414.135537 -329.087362 
L 405.93719 -330.732288 
L 397.738843 -332.8942 
L 389.540496 -335.054902 
L 381.342149 -337.212452 
L 373.143802 -338.983656 
L 364.945455 -340.271882 
L 356.747107 -342.034094 
L 348.54876 -344.377547 
L 340.350413 -346.725254 
L 332.152066 -349.104087 
L 323.953719 -351.5851 
L 315.755372 -354.144757 
L 307.557025 -356.922609 
L 299.358678 -360.278234 
L 291.160331 -362.536666 
L 282.961983 -364.769571 
L 274.763636 -367.70566 
L 266.565289 -369.330997 
L 258.366942 -371.325614 
L 250.168595 -373.689506 
L 241.970248 -376.239686 
L 233.771901 -379.493753 
L 225.573554 -382.105314 
L 217.375207 -385.018266 
L 209.17686 -388.039667 
L 200.978512 -391.23042 
L 192.780165 -393.649565 
L 184.581818 -396.756094 
z
" style="stroke: #ffffff; stroke-opacity: 0.15"/>
    </defs>
    <g clip-path="url(#p80ead3776a)">
     <use xlink:href="#me8797fa682" x="0" y="576" style="fill: #808080; fill-opacity: 0.15; stroke: #ffffff; stroke-opacity: 0.15"/>
    </g>
   </g>
   <g id="line2d_14">
    <path d="M 184.581818 240.197249 
L 192.780165 241.618405 
L 200.978512 243.039561 
L 209.17686 244.460717 
L 217.375207 245.881873 
L 225.573554 247.303029 
L 233.771901 248.724185 
L 241.970248 250.145341 
L 250.168595 251.566497 
L 258.366942 252.987653 
L 266.565289 254.408809 
L 274.763636 255.829965 
L 282.961983 257.251121 
L 291.160331 258.672277 
L 299.358678 260.093433 
L 307.557025 261.514589 
L 315.755372 262.935745 
L 323.953719 264.356901 
L 332.152066 265.778057 
L 340.350413 267.199213 
L 348.54876 268.620369 
L 356.747107 270.041525 
L 364.945455 271.462681 
L 373.143802 272.883838 
L 381.342149 274.304994 
L 389.540496 275.72615 
L 397.738843 277.147306 
L 405.93719 278.568462 
L 414.135537 279.989618 
L 422.333884 281.410774 
L 430.532231 282.83193 
L 438.730579 284.253086 
L 446.928926 285.674242 
L 455.127273 287.095398 
L 463.32562 288.516554 
L 471.523967 289.93771 
L 479.722314 291.358866 
L 487.920661 292.780022 
L 496.119008 294.201178 
L 504.317355 295.622334 
L 512.515702 297.04349 
L 520.71405 298.464646 
L 528.912397 299.885802 
L 537.110744 301.306958 
L 545.309091 302.728114 
L 553.507438 304.14927 
L 561.705785 305.570426 
L 569.904132 306.991582 
L 578.102479 308.412738 
L 586.300826 309.833894 
L 594.499174 311.25505 
L 602.697521 312.676206 
L 610.895868 314.097362 
L 619.094215 315.518518 
L 627.292562 316.939674 
L 635.490909 318.36083 
L 643.689256 319.781986 
L 651.887603 321.203142 
L 660.08595 322.624298 
L 668.284298 324.045455 
L 676.482645 325.466611 
L 684.680992 326.887767 
L 692.879339 328.308923 
L 701.077686 329.730079 
L 709.276033 331.151235 
L 717.47438 332.572391 
L 725.672727 333.993547 
L 733.871074 335.414703 
L 742.069421 336.835859 
L 750.267769 338.257015 
L 758.466116 339.678171 
L 766.664463 341.099327 
L 774.86281 342.520483 
L 783.061157 343.941639 
L 791.259504 345.362795 
L 799.457851 346.783951 
L 807.656198 348.205107 
L 815.854545 349.626263 
L 824.052893 351.047419 
L 832.25124 352.468575 
L 840.449587 353.889731 
L 848.647934 355.310887 
L 856.846281 356.732043 
L 865.044628 358.153199 
L 873.242975 359.574355 
L 881.441322 360.995511 
L 889.639669 362.416667 
L 897.838017 363.837823 
L 906.036364 365.258979 
L 914.234711 366.680135 
L 922.433058 368.101291 
L 930.631405 369.522447 
L 938.829752 370.943603 
L 947.028099 372.364759 
L 955.226446 373.785915 
L 963.424793 375.207072 
L 971.62314 376.628228 
L 979.821488 378.049384 
L 988.019835 379.47054 
L 996.218182 380.891696 
" clip-path="url(#p80ead3776a)" style="fill: none; stroke: #808080; stroke-width: 2.25; stroke-linecap: round"/>
   </g>
  </g>
 </g>
 <defs>
  <clipPath id="p80ead3776a">
   <rect x="144" y="69.12" width="892.8" height="443.52"/>
  </clipPath>
 </defs>
</svg>
